<svg xmlns="http://www.w3.org/2000/svg" xmlns:xlink="http://www.w3.org/1999/xlink" width="40" zoomAndPan="magnify" viewBox="0 0 30 30.000001" height="40" preserveAspectRatio="xMidYMid meet" version="1.0"><defs><clipPath id="2c6b7f93ad"><path d="M 0.484375 1.234375 L 29.515625 1.234375 L 29.515625 28 L 0.484375 28 Z M 0.484375 1.234375 " clip-rule="nonzero"/></clipPath></defs><g clip-path="url(#2c6b7f93ad)"><path fill="#fff" d="M 24.753906 13.710938 C 24.753906 14.050781 24.246094 14.050781 24.246094 13.710938 L 24.246094 13.53125 C 24.246094 13.195312 24.753906 13.195312 24.753906 13.53125 Z M 26.101562 13.710938 C 26.101562 14.050781 25.59375 14.050781 25.59375 13.710938 L 25.59375 13.53125 C 25.59375 13.195312 26.101562 13.195312 26.101562 13.53125 Z M 23.410156 13.710938 C 23.410156 14.050781 22.902344 14.050781 22.902344 13.710938 L 22.902344 13.53125 C 22.902344 13.195312 23.410156 13.195312 23.410156 13.53125 Z M 26.101562 16.941406 C 26.101562 17.277344 25.59375 17.277344 25.59375 16.941406 L 25.59375 16.761719 C 25.59375 16.421875 26.101562 16.421875 26.101562 16.761719 Z M 23.410156 16.941406 C 23.410156 17.277344 22.902344 17.277344 22.902344 16.941406 L 22.902344 16.761719 C 22.902344 16.421875 23.410156 16.421875 23.410156 16.761719 Z M 24.753906 16.941406 C 24.753906 17.277344 24.246094 17.277344 24.246094 16.941406 L 24.246094 16.761719 C 24.246094 16.421875 24.753906 16.421875 24.753906 16.761719 Z M 23.410156 20.0625 C 23.410156 20.398438 22.902344 20.398438 22.902344 20.0625 L 22.902344 19.878906 C 22.902344 19.542969 23.410156 19.542969 23.410156 19.878906 Z M 24.753906 20.0625 C 24.753906 20.398438 24.246094 20.398438 24.246094 20.0625 L 24.246094 19.878906 C 24.246094 19.542969 24.753906 19.542969 24.753906 19.878906 Z M 26.101562 20.0625 C 26.101562 20.398438 25.59375 20.398438 25.59375 20.0625 L 25.59375 19.878906 C 25.59375 19.542969 26.101562 19.542969 26.101562 19.878906 Z M 24.503906 8.210938 C 25.839844 8.210938 27.058594 8.40625 27.941406 8.71875 C 28.722656 8.992188 29.261719 9.371094 29.441406 9.816406 C 29.476562 9.878906 29.507812 9.898438 29.503906 10.007812 L 29.503906 13.621094 C 29.503906 13.679688 29.5 13.734375 29.488281 13.789062 C 29.488281 13.800781 29.507812 13.820312 29.503906 13.902344 L 29.503906 19.972656 C 29.503906 20.554688 28.910156 21.058594 27.941406 21.398438 C 26.03125 22.070312 22.972656 22.070312 21.0625 21.398438 C 20.09375 21.058594 19.5 20.554688 19.5 19.972656 L 19.5 13.882812 C 19.5 13.851562 19.503906 13.820312 19.515625 13.789062 C 19.503906 13.734375 19.5 13.679688 19.5 13.621094 L 19.5 9.984375 C 19.5 9.921875 19.523438 9.859375 19.5625 9.816406 C 19.742188 9.371094 20.28125 8.992188 21.0625 8.71875 C 21.945312 8.40625 23.164062 8.210938 24.503906 8.210938 Z M 29 11.019531 C 27.242188 12.421875 21.765625 12.421875 20.003906 11.019531 L 20.003906 13.621094 C 20.003906 14.019531 20.640625 14.359375 21.226562 14.566406 C 23.023438 15.199219 25.980469 15.199219 27.777344 14.566406 C 28.367188 14.359375 29 14.019531 29 13.621094 Z M 27.777344 9.199219 C 25.980469 8.566406 23.023438 8.566406 21.226562 9.199219 C 19.679688 9.746094 19.527344 10.488281 21.226562 11.085938 C 23.023438 11.71875 25.976562 11.71875 27.777344 11.085938 C 29.476562 10.484375 29.324219 9.746094 27.777344 9.199219 Z M 29 14.5 C 27.242188 15.902344 21.765625 15.902344 20.003906 14.5 L 20.003906 16.710938 C 20.003906 17.050781 20.472656 17.386719 21.226562 17.65625 C 23.023438 18.289062 25.980469 18.289062 27.777344 17.65625 C 28.53125 17.386719 29 17.050781 29 16.710938 Z M 29 17.585938 C 27.242188 18.992188 21.765625 18.992188 20.003906 17.589844 L 20.003906 19.972656 C 20.003906 20.3125 20.472656 20.648438 21.226562 20.914062 C 23.023438 21.550781 25.980469 21.550781 27.777344 20.914062 C 28.53125 20.648438 29 20.3125 29 19.972656 Z M 12.445312 20.21875 C 12.109375 20.21875 12.109375 19.707031 12.445312 19.707031 L 13.570312 19.707031 C 13.90625 19.707031 13.90625 20.21875 13.570312 20.21875 Z M 16.453125 20.21875 C 16.121094 20.21875 16.121094 19.707031 16.453125 19.707031 L 17.582031 19.707031 C 17.914062 19.707031 17.914062 20.21875 17.582031 20.21875 Z M 14.449219 20.21875 C 14.117188 20.21875 14.117188 19.707031 14.449219 19.707031 L 15.578125 19.707031 C 15.910156 19.707031 15.910156 20.21875 15.578125 20.21875 Z M 7.789062 18.683594 L 11.042969 18.683594 C 11.351562 18.683594 11.605469 18.941406 11.605469 19.253906 L 11.605469 20.675781 C 11.605469 20.988281 11.355469 21.242188 11.042969 21.242188 L 7.789062 21.242188 C 7.480469 21.242188 7.222656 20.984375 7.222656 20.675781 L 7.222656 19.253906 C 7.222656 18.941406 7.480469 18.683594 7.789062 18.683594 Z M 11.042969 19.195312 L 7.789062 19.195312 C 7.757812 19.195312 7.730469 19.222656 7.730469 19.253906 L 7.730469 20.675781 C 7.730469 20.707031 7.757812 20.730469 7.789062 20.730469 L 11.042969 20.730469 C 11.074219 20.730469 11.101562 20.703125 11.101562 20.675781 L 11.101562 19.253906 C 11.101562 19.222656 11.074219 19.195312 11.042969 19.195312 Z M 6.917969 17.722656 L 18.140625 17.722656 C 18.613281 17.722656 18.996094 18.113281 18.996094 18.589844 L 18.996094 21.339844 C 18.996094 21.816406 18.613281 22.203125 18.140625 22.203125 L 6.917969 22.203125 C 6.445312 22.203125 6.058594 21.816406 6.058594 21.339844 L 6.058594 18.589844 C 6.058594 18.113281 6.445312 17.722656 6.917969 17.722656 Z M 18.140625 18.234375 L 6.917969 18.234375 C 6.726562 18.234375 6.566406 18.394531 6.566406 18.589844 L 6.566406 21.339844 C 6.566406 21.53125 6.726562 21.691406 6.917969 21.691406 L 18.140625 21.691406 C 18.332031 21.691406 18.492188 21.53125 18.492188 21.339844 L 18.492188 18.589844 C 18.492188 18.394531 18.332031 18.234375 18.140625 18.234375 Z M 12.445312 14.652344 C 12.109375 14.652344 12.109375 14.136719 12.445312 14.136719 L 13.570312 14.136719 C 13.90625 14.136719 13.90625 14.652344 13.570312 14.652344 Z M 16.453125 14.652344 C 16.121094 14.652344 16.121094 14.136719 16.453125 14.136719 L 17.582031 14.136719 C 17.914062 14.136719 17.914062 14.652344 17.582031 14.652344 Z M 14.449219 14.652344 C 14.117188 14.652344 14.117188 14.136719 14.449219 14.136719 L 15.578125 14.136719 C 15.910156 14.136719 15.910156 14.652344 15.578125 14.652344 Z M 7.789062 13.113281 L 11.042969 13.113281 C 11.351562 13.113281 11.605469 13.371094 11.605469 13.6875 L 11.605469 15.105469 C 11.605469 15.417969 11.355469 15.675781 11.042969 15.675781 L 7.789062 15.675781 C 7.480469 15.675781 7.222656 15.417969 7.222656 15.105469 L 7.222656 13.6875 C 7.222656 13.371094 7.480469 13.113281 7.789062 13.113281 Z M 11.042969 13.625 L 7.789062 13.625 C 7.757812 13.625 7.730469 13.652344 7.730469 13.6875 L 7.730469 15.105469 C 7.730469 15.136719 7.757812 15.164062 7.789062 15.164062 L 11.042969 15.164062 C 11.074219 15.164062 11.101562 15.136719 11.101562 15.105469 L 11.101562 13.6875 C 11.101562 13.652344 11.074219 13.625 11.042969 13.625 Z M 6.917969 12.152344 L 18.140625 12.152344 C 18.613281 12.152344 18.996094 12.542969 18.996094 13.023438 L 18.996094 15.769531 C 18.996094 16.246094 18.613281 16.636719 18.140625 16.636719 L 6.917969 16.636719 C 6.445312 16.636719 6.058594 16.246094 6.058594 15.769531 L 6.058594 13.023438 C 6.058594 12.542969 6.445312 12.152344 6.917969 12.152344 Z M 18.140625 12.664062 L 6.917969 12.664062 C 6.726562 12.664062 6.566406 12.824219 6.566406 13.023438 L 6.566406 15.769531 C 6.566406 15.964844 6.726562 16.125 6.917969 16.125 L 18.140625 16.125 C 18.332031 16.125 18.492188 15.964844 18.492188 15.769531 L 18.492188 13.023438 C 18.492188 12.824219 18.332031 12.664062 18.140625 12.664062 Z M 12.445312 9.082031 C 12.109375 9.082031 12.109375 8.570312 12.445312 8.570312 L 13.570312 8.570312 C 13.90625 8.570312 13.90625 9.082031 13.570312 9.082031 Z M 16.453125 9.082031 C 16.121094 9.082031 16.121094 8.570312 16.453125 8.570312 L 17.582031 8.570312 C 17.914062 8.570312 17.914062 9.082031 17.582031 9.082031 Z M 14.449219 9.082031 C 14.117188 9.082031 14.117188 8.570312 14.449219 8.570312 L 15.578125 8.570312 C 15.910156 8.570312 15.910156 9.082031 15.578125 9.082031 Z M 7.789062 7.546875 L 11.042969 7.546875 C 11.351562 7.546875 11.605469 7.804688 11.605469 8.117188 L 11.605469 9.535156 C 11.605469 9.847656 11.355469 10.109375 11.042969 10.109375 L 7.789062 10.109375 C 7.480469 10.109375 7.222656 9.847656 7.222656 9.535156 L 7.222656 8.117188 C 7.222656 7.800781 7.480469 7.546875 7.789062 7.546875 Z M 11.042969 8.058594 L 7.789062 8.058594 C 7.757812 8.058594 7.730469 8.085938 7.730469 8.117188 L 7.730469 9.535156 C 7.730469 9.570312 7.757812 9.59375 7.789062 9.59375 L 11.042969 9.59375 C 11.074219 9.59375 11.101562 9.566406 11.101562 9.535156 L 11.101562 8.117188 C 11.101562 8.082031 11.074219 8.058594 11.042969 8.058594 Z M 6.917969 6.585938 L 18.140625 6.585938 C 18.613281 6.585938 18.996094 6.972656 18.996094 7.453125 L 18.996094 10.199219 C 18.996094 10.679688 18.613281 11.066406 18.140625 11.066406 L 6.917969 11.066406 C 6.445312 11.066406 6.058594 10.679688 6.058594 10.199219 L 6.058594 7.453125 C 6.058594 6.972656 6.445312 6.585938 6.917969 6.585938 Z M 18.140625 7.097656 L 6.917969 7.097656 C 6.726562 7.097656 6.566406 7.257812 6.566406 7.453125 L 6.566406 10.199219 C 6.566406 10.394531 6.726562 10.554688 6.917969 10.554688 L 18.140625 10.554688 C 18.332031 10.554688 18.492188 10.394531 18.492188 10.199219 L 18.492188 7.453125 C 18.492188 7.257812 18.332031 7.097656 18.140625 7.097656 Z M 23.085938 3.167969 C 24.398438 3.167969 25.0625 4.78125 24.132812 5.71875 C 23.203125 6.660156 21.609375 5.988281 21.609375 4.664062 C 21.609375 3.839844 22.273438 3.167969 23.085938 3.167969 Z M 23.773438 3.96875 C 23.164062 3.351562 22.117188 3.792969 22.117188 4.664062 C 22.117188 5.535156 23.164062 5.972656 23.773438 5.355469 C 24.152344 4.972656 24.152344 4.351562 23.773438 3.96875 Z M 23.085938 25.140625 C 23.949219 25.140625 24.382812 24.082031 23.773438 23.46875 C 23.164062 22.851562 22.117188 23.289062 22.117188 24.160156 C 22.117188 24.703125 22.550781 25.140625 23.085938 25.140625 Z M 24.132812 25.21875 C 23.203125 26.15625 21.609375 25.488281 21.609375 24.160156 C 21.609375 22.835938 23.203125 22.167969 24.132812 23.105469 C 24.710938 23.6875 24.710938 24.632812 24.132812 25.21875 Z M 1.972656 25.140625 C 2.835938 25.140625 3.265625 24.082031 2.65625 23.46875 C 2.046875 22.851562 1 23.289062 1 24.160156 C 1 24.703125 1.433594 25.140625 1.972656 25.140625 Z M 3.015625 25.21875 C 2.085938 26.15625 0.496094 25.488281 0.496094 24.160156 C 0.496094 22.835938 2.085938 22.167969 3.015625 23.105469 C 3.59375 23.6875 3.59375 24.632812 3.015625 25.21875 Z M 12.53125 27.074219 C 13.390625 27.074219 13.828125 26.015625 13.214844 25.398438 C 12.605469 24.785156 11.558594 25.222656 11.558594 26.09375 C 11.558594 26.636719 11.992188 27.074219 12.53125 27.074219 Z M 13.574219 27.148438 C 12.644531 28.089844 11.050781 27.421875 11.050781 26.09375 C 11.050781 24.769531 12.644531 24.101562 13.574219 25.039062 C 14.152344 25.621094 14.152344 26.566406 13.574219 27.148438 Z M 1.972656 3.167969 C 3.28125 3.167969 3.945312 4.78125 3.015625 5.71875 C 2.085938 6.660156 0.496094 5.988281 0.496094 4.664062 C 0.496094 3.839844 1.15625 3.167969 1.972656 3.167969 Z M 2.65625 3.96875 C 2.046875 3.351562 1 3.792969 1 4.664062 C 1 5.535156 2.046875 5.972656 2.65625 5.355469 C 3.035156 4.972656 3.035156 4.351562 2.65625 3.96875 Z M 12.53125 1.234375 C 13.839844 1.234375 14.503906 2.847656 13.574219 3.785156 C 12.644531 4.726562 11.050781 4.054688 11.050781 2.730469 C 11.050781 1.90625 11.714844 1.234375 12.53125 1.234375 Z M 13.214844 2.035156 C 12.605469 1.417969 11.558594 1.859375 11.558594 2.730469 C 11.558594 3.601562 12.605469 4.039062 13.214844 3.421875 C 13.59375 3.039062 13.59375 2.417969 13.214844 2.035156 Z M 16.851562 24.382812 C 16.710938 24.382812 16.597656 24.269531 16.597656 24.125 L 16.597656 22.542969 L 17.105469 22.542969 L 17.105469 23.871094 L 21.210938 23.871094 C 21.542969 23.871094 21.542969 24.382812 21.210938 24.382812 Z M 3.847656 24.382812 C 3.515625 24.382812 3.515625 23.871094 3.847656 23.871094 L 7.953125 23.871094 L 7.953125 22.542969 L 8.460938 22.542969 L 8.460938 24.128906 C 8.460938 24.269531 8.347656 24.382812 8.207031 24.382812 Z M 3.847656 4.917969 C 3.515625 4.917969 3.515625 4.40625 3.847656 4.40625 L 8.207031 4.40625 C 8.347656 4.40625 8.460938 4.523438 8.460938 4.664062 L 8.460938 6.152344 L 7.953125 6.152344 L 7.953125 4.917969 Z M 16.597656 4.664062 C 16.597656 4.519531 16.710938 4.40625 16.851562 4.40625 L 21.210938 4.40625 C 21.542969 4.40625 21.542969 4.917969 21.210938 4.917969 L 17.105469 4.917969 L 17.105469 6.152344 L 16.597656 6.152344 Z M 8.460938 11.25 L 8.460938 11.921875 L 7.953125 11.921875 L 7.953125 11.25 Z M 8.460938 16.910156 L 8.460938 17.476562 L 7.953125 17.476562 L 7.953125 16.910156 Z M 12.78125 4.664062 L 12.78125 6.152344 L 12.277344 6.152344 L 12.277344 4.664062 Z M 12.78125 22.542969 L 12.78125 24.125 L 12.277344 24.125 L 12.277344 22.542969 Z M 17.105469 11.25 L 17.105469 11.921875 L 16.597656 11.921875 L 16.597656 11.25 Z M 17.105469 16.910156 L 17.105469 17.476562 L 16.597656 17.476562 L 16.597656 16.910156 Z M 17.105469 16.910156 " fill-opacity="1" fill-rule="nonzero"/></g></svg>