<svg xmlns="http://www.w3.org/2000/svg" xmlns:xlink="http://www.w3.org/1999/xlink" width="40" zoomAndPan="magnify" viewBox="0 0 30 30.000001" height="40" preserveAspectRatio="xMidYMid meet" version="1.0"><defs><clipPath id="50216d429a"><path d="M 5 15 L 25 15 L 25 29.03125 L 5 29.03125 Z M 5 15 " clip-rule="nonzero"/></clipPath><clipPath id="eea2c7328a"><path d="M 18 0 L 27.648438 0 L 27.648438 15 L 18 15 Z M 18 0 " clip-rule="nonzero"/></clipPath><clipPath id="87fd9c84ed"><path d="M 2.246094 0 L 12 0 L 12 15 L 2.246094 15 Z M 2.246094 0 " clip-rule="nonzero"/></clipPath></defs><g clip-path="url(#50216d429a)"><path fill="#fff" d="M 23.660156 18.324219 L 23.660156 17.390625 L 23.683594 17.390625 C 24.328125 17.390625 24.847656 16.867188 24.847656 16.222656 C 24.847656 15.582031 24.328125 15.054688 23.683594 15.054688 L 6.210938 15.054688 C 5.570312 15.054688 5.050781 15.582031 5.050781 16.222656 C 5.050781 16.867188 5.570312 17.390625 6.210938 17.390625 L 6.238281 17.390625 L 6.238281 18.324219 C 6.238281 18.417969 6.28125 18.511719 6.355469 18.570312 L 13.316406 24.15625 L 13.316406 28.714844 C 13.316406 28.824219 13.375 28.925781 13.464844 28.984375 C 13.515625 29.015625 13.574219 29.03125 13.632812 29.03125 C 13.679688 29.03125 13.730469 29.019531 13.773438 28.996094 L 16.398438 27.671875 C 16.503906 27.617188 16.570312 27.507812 16.570312 27.390625 L 16.570312 24.160156 L 18.828125 22.347656 L 18.878906 22.394531 L 18.835938 22.777344 L 18.257812 23.09375 C 18.136719 23.15625 18.082031 23.296875 18.117188 23.425781 L 18.339844 24.207031 C 18.375 24.339844 18.496094 24.425781 18.628906 24.417969 L 19.289062 24.382812 L 19.527344 24.683594 L 19.339844 25.320312 C 19.300781 25.449219 19.355469 25.585938 19.472656 25.652344 L 20.183594 26.050781 C 20.300781 26.113281 20.445312 26.089844 20.535156 25.988281 L 20.976562 25.496094 L 21.355469 25.542969 L 21.671875 26.125 C 21.722656 26.21875 21.820312 26.273438 21.921875 26.273438 C 21.949219 26.273438 21.976562 26.269531 22 26.261719 L 22.78125 26.039062 C 22.910156 26.003906 23 25.882812 22.992188 25.75 L 22.957031 25.085938 L 23.253906 24.847656 L 23.886719 25.035156 C 24.015625 25.074219 24.15625 25.019531 24.21875 24.902344 L 24.617188 24.1875 C 24.679688 24.070312 24.65625 23.925781 24.558594 23.835938 L 24.066406 23.390625 L 24.109375 23.011719 L 24.691406 22.695312 C 24.808594 22.628906 24.867188 22.492188 24.828125 22.363281 L 24.609375 21.578125 C 24.570312 21.449219 24.449219 21.363281 24.316406 21.371094 L 23.65625 21.40625 L 23.421875 21.105469 L 23.605469 20.46875 C 23.644531 20.339844 23.589844 20.203125 23.472656 20.136719 L 22.761719 19.738281 C 22.644531 19.671875 22.5 19.699219 22.410156 19.796875 L 21.96875 20.289062 L 21.589844 20.246094 L 21.546875 20.164062 L 23.496094 18.601562 C 23.59375 18.546875 23.660156 18.441406 23.660156 18.324219 Z M 5.679688 16.222656 C 5.679688 15.929688 5.917969 15.691406 6.210938 15.691406 L 23.683594 15.691406 C 23.976562 15.691406 24.21875 15.929688 24.21875 16.222656 C 24.21875 16.519531 23.976562 16.757812 23.683594 16.757812 L 6.210938 16.757812 C 5.917969 16.757812 5.679688 16.519531 5.679688 16.222656 Z M 22.050781 20.878906 C 22.144531 20.890625 22.234375 20.855469 22.296875 20.785156 L 22.683594 20.355469 L 22.992188 20.527344 L 22.828125 21.082031 C 22.800781 21.171875 22.820312 21.269531 22.878906 21.34375 L 23.300781 21.878906 C 23.359375 21.953125 23.449219 21.992188 23.539062 21.988281 L 24.117188 21.957031 L 24.214844 22.296875 L 23.707031 22.574219 C 23.625 22.621094 23.570312 22.703125 23.558594 22.796875 L 23.480469 23.472656 C 23.46875 23.566406 23.503906 23.660156 23.574219 23.722656 L 24.003906 24.109375 L 23.832031 24.417969 L 23.277344 24.253906 C 23.1875 24.226562 23.089844 24.246094 23.015625 24.304688 L 22.484375 24.726562 C 22.410156 24.785156 22.371094 24.875 22.375 24.96875 L 22.40625 25.550781 L 22.066406 25.644531 L 21.789062 25.136719 C 21.746094 25.054688 21.664062 24.996094 21.570312 24.988281 L 20.894531 24.90625 C 20.886719 24.90625 20.875 24.90625 20.863281 24.90625 C 20.78125 24.90625 20.703125 24.941406 20.648438 25 L 20.261719 25.433594 L 19.953125 25.261719 L 20.117188 24.703125 C 20.144531 24.613281 20.125 24.515625 20.066406 24.445312 L 19.648438 23.90625 C 19.589844 23.835938 19.5 23.792969 19.40625 23.800781 L 18.828125 23.832031 L 18.730469 23.488281 L 19.242188 23.210938 C 19.324219 23.167969 19.378906 23.085938 19.386719 22.992188 L 19.46875 22.3125 C 19.476562 22.222656 19.445312 22.128906 19.375 22.066406 L 18.945312 21.679688 L 19.117188 21.367188 L 19.671875 21.53125 C 19.761719 21.558594 19.855469 21.539062 19.929688 21.484375 L 20.464844 21.058594 C 20.535156 21 20.578125 20.910156 20.570312 20.816406 L 20.539062 20.238281 L 20.878906 20.140625 L 21.15625 20.652344 C 21.203125 20.734375 21.28125 20.789062 21.375 20.800781 Z M 23.027344 18.164062 L 21.234375 19.605469 C 21.160156 19.527344 21.050781 19.496094 20.945312 19.523438 L 20.164062 19.746094 C 20.035156 19.785156 19.949219 19.90625 19.957031 20.039062 L 19.992188 20.699219 L 19.691406 20.9375 L 19.058594 20.75 C 18.929688 20.714844 18.792969 20.769531 18.726562 20.886719 L 18.332031 21.597656 C 18.273438 21.699219 18.285156 21.824219 18.355469 21.914062 L 16.058594 23.761719 C 15.984375 23.820312 15.941406 23.910156 15.941406 24.007812 L 15.941406 27.195312 L 13.949219 28.199219 L 13.949219 24.003906 C 13.949219 23.910156 13.902344 23.816406 13.828125 23.757812 L 6.871094 18.171875 L 6.871094 17.390625 L 23.027344 17.390625 Z M 23.027344 18.164062 " fill-opacity="1" fill-rule="nonzero"/></g><path fill="#fff" d="M 3.652344 3.054688 L 7.21875 3.054688 L 7.21875 3.6875 L 3.652344 3.6875 Z M 3.652344 3.054688 " fill-opacity="1" fill-rule="nonzero"/><path fill="#fff" d="M 3.652344 4.457031 L 7.21875 4.457031 L 7.21875 5.09375 L 3.652344 5.09375 Z M 3.652344 4.457031 " fill-opacity="1" fill-rule="nonzero"/><path fill="#fff" d="M 4.820312 5.863281 L 7.21875 5.863281 L 7.21875 6.496094 L 4.820312 6.496094 Z M 4.820312 5.863281 " fill-opacity="1" fill-rule="nonzero"/><path fill="#fff" d="M 3.652344 5.863281 L 4.277344 5.863281 L 4.277344 6.496094 L 3.652344 6.496094 Z M 3.652344 5.863281 " fill-opacity="1" fill-rule="nonzero"/><path fill="#fff" d="M 3.652344 1.757812 L 5.589844 1.757812 L 5.589844 2.390625 L 3.652344 2.390625 Z M 3.652344 1.757812 " fill-opacity="1" fill-rule="nonzero"/><path fill="#fff" d="M 12.070312 8.078125 L 14.785156 8.078125 L 14.785156 11.859375 L 14.132812 11.859375 C 13.917969 11.859375 13.78125 12.09375 13.890625 12.285156 L 14.855469 13.960938 C 14.964844 14.152344 15.234375 14.152344 15.34375 13.960938 L 16.308594 12.285156 C 16.417969 12.09375 16.28125 11.859375 16.0625 11.859375 L 15.414062 11.859375 L 15.414062 8.078125 L 17.828125 8.078125 C 18 8.078125 18.140625 7.9375 18.140625 7.761719 L 18.140625 2.074219 C 18.140625 2.066406 18.140625 2.0625 18.140625 2.058594 C 18.140625 2.050781 18.140625 2.042969 18.140625 2.035156 C 18.140625 2.035156 18.140625 2.035156 18.140625 2.03125 C 18.136719 2.023438 18.136719 2.019531 18.136719 2.011719 C 18.132812 2.003906 18.132812 1.996094 18.132812 1.992188 C 18.128906 1.988281 18.128906 1.988281 18.128906 1.988281 C 18.128906 1.980469 18.125 1.976562 18.125 1.96875 C 18.125 1.96875 18.125 1.96875 18.125 1.964844 C 18.121094 1.960938 18.117188 1.953125 18.117188 1.949219 C 18.117188 1.945312 18.113281 1.945312 18.113281 1.941406 C 18.109375 1.9375 18.109375 1.933594 18.105469 1.925781 C 18.101562 1.917969 18.097656 1.914062 18.09375 1.90625 C 18.09375 1.90625 18.09375 1.902344 18.089844 1.902344 C 18.089844 1.898438 18.085938 1.890625 18.082031 1.886719 C 18.082031 1.886719 18.082031 1.886719 18.078125 1.882812 C 18.074219 1.878906 18.070312 1.875 18.066406 1.867188 C 18.066406 1.867188 18.066406 1.867188 18.0625 1.863281 C 18.058594 1.859375 18.054688 1.855469 18.050781 1.847656 L 16.300781 0.09375 C 16.296875 0.0898438 16.292969 0.0859375 16.289062 0.0820312 C 16.285156 0.078125 16.285156 0.078125 16.28125 0.078125 C 16.277344 0.0742188 16.273438 0.0703125 16.265625 0.0625 C 16.261719 0.0585938 16.253906 0.0546875 16.25 0.0507812 C 16.25 0.0507812 16.246094 0.0507812 16.246094 0.0507812 C 16.238281 0.046875 16.234375 0.0429688 16.226562 0.0390625 C 16.21875 0.0351562 16.214844 0.03125 16.210938 0.03125 C 16.207031 0.03125 16.207031 0.0273438 16.203125 0.0273438 C 16.199219 0.0273438 16.191406 0.0234375 16.183594 0.0195312 C 16.179688 0.0195312 16.171875 0.015625 16.164062 0.015625 C 16.164062 0.015625 16.164062 0.015625 16.160156 0.0117188 C 16.15625 0.0117188 16.148438 0.0117188 16.140625 0.0078125 C 16.132812 0.0078125 16.128906 0.0078125 16.121094 0.00390625 C 16.121094 0.00390625 16.117188 0.00390625 16.117188 0.00390625 C 16.109375 0.00390625 16.101562 0.00390625 16.097656 0.00390625 C 16.097656 0.00390625 16.097656 0.00390625 16.09375 0.00390625 C 16.089844 0.00390625 16.085938 0.00390625 16.078125 0.00390625 L 12.070312 0.00390625 C 11.898438 0.00390625 11.753906 0.144531 11.753906 0.320312 L 11.753906 7.761719 C 11.753906 7.9375 11.898438 8.078125 12.070312 8.078125 Z M 17.058594 1.753906 L 16.394531 1.75 L 16.394531 1.085938 Z M 12.386719 0.636719 L 15.765625 0.636719 L 15.765625 2.0625 C 15.765625 2.238281 15.902344 2.378906 16.078125 2.378906 L 17.511719 2.386719 L 17.511719 7.445312 L 12.386719 7.445312 Z M 12.386719 0.636719 " fill-opacity="1" fill-rule="nonzero"/><path fill="#fff" d="M 14.332031 3.054688 L 16.726562 3.054688 L 16.726562 3.6875 L 14.332031 3.6875 Z M 14.332031 3.054688 " fill-opacity="1" fill-rule="nonzero"/><path fill="#fff" d="M 13.160156 3.054688 L 13.789062 3.054688 L 13.789062 3.6875 L 13.160156 3.6875 Z M 13.160156 3.054688 " fill-opacity="1" fill-rule="nonzero"/><path fill="#fff" d="M 13.160156 4.457031 L 16.726562 4.457031 L 16.726562 5.09375 L 13.160156 5.09375 Z M 13.160156 4.457031 " fill-opacity="1" fill-rule="nonzero"/><path fill="#fff" d="M 13.160156 5.863281 L 16.726562 5.863281 L 16.726562 6.496094 L 13.160156 6.496094 Z M 13.160156 5.863281 " fill-opacity="1" fill-rule="nonzero"/><path fill="#fff" d="M 13.160156 1.757812 L 15.097656 1.757812 L 15.097656 2.390625 L 13.160156 2.390625 Z M 13.160156 1.757812 " fill-opacity="1" fill-rule="nonzero"/><g clip-path="url(#eea2c7328a)"><path fill="#fff" d="M 27.648438 2.058594 C 27.648438 2.050781 27.648438 2.042969 27.648438 2.035156 C 27.648438 2.035156 27.648438 2.035156 27.648438 2.03125 C 27.648438 2.023438 27.644531 2.019531 27.644531 2.011719 C 27.644531 2.003906 27.640625 1.996094 27.640625 1.992188 C 27.640625 1.988281 27.640625 1.988281 27.636719 1.988281 C 27.636719 1.980469 27.636719 1.976562 27.632812 1.96875 C 27.632812 1.96875 27.632812 1.96875 27.632812 1.964844 C 27.628906 1.960938 27.628906 1.953125 27.625 1.949219 C 27.625 1.945312 27.625 1.945312 27.621094 1.941406 C 27.621094 1.9375 27.617188 1.933594 27.613281 1.925781 C 27.609375 1.917969 27.605469 1.914062 27.601562 1.90625 C 27.601562 1.90625 27.601562 1.902344 27.601562 1.902344 C 27.597656 1.898438 27.59375 1.890625 27.589844 1.886719 C 27.589844 1.886719 27.589844 1.886719 27.589844 1.882812 C 27.585938 1.878906 27.582031 1.875 27.574219 1.867188 C 27.574219 1.867188 27.574219 1.867188 27.574219 1.863281 C 27.566406 1.859375 27.5625 1.855469 27.558594 1.847656 L 25.8125 0.09375 C 25.804688 0.0898438 25.800781 0.0859375 25.796875 0.0820312 C 25.792969 0.078125 25.792969 0.078125 25.792969 0.078125 C 25.785156 0.0742188 25.78125 0.0703125 25.777344 0.0625 C 25.773438 0.0625 25.773438 0.0625 25.773438 0.0625 C 25.769531 0.0585938 25.765625 0.0546875 25.757812 0.0507812 C 25.757812 0.0507812 25.753906 0.0507812 25.753906 0.0507812 C 25.746094 0.046875 25.742188 0.0429688 25.738281 0.0390625 C 25.734375 0.0390625 25.734375 0.0390625 25.734375 0.0390625 C 25.730469 0.0351562 25.722656 0.03125 25.71875 0.03125 C 25.714844 0.03125 25.714844 0.0273438 25.710938 0.0273438 C 25.707031 0.0273438 25.699219 0.0234375 25.695312 0.0195312 C 25.695312 0.0195312 25.691406 0.0195312 25.691406 0.0195312 C 25.6875 0.0195312 25.679688 0.015625 25.675781 0.015625 C 25.671875 0.015625 25.671875 0.015625 25.667969 0.0117188 C 25.664062 0.0117188 25.65625 0.0117188 25.648438 0.0078125 C 25.644531 0.0078125 25.636719 0.0078125 25.628906 0.00390625 C 25.628906 0.00390625 25.625 0.00390625 25.625 0.00390625 C 25.617188 0.00390625 25.613281 0.00390625 25.605469 0.00390625 C 25.597656 0.00390625 25.59375 0.00390625 25.589844 0.00390625 L 21.578125 0.00390625 C 21.40625 0.00390625 21.265625 0.144531 21.265625 0.320312 L 21.265625 7.761719 C 21.265625 7.9375 21.40625 8.078125 21.578125 8.078125 L 24.449219 8.078125 L 24.449219 8.773438 C 24.449219 9.25 24.0625 9.640625 23.585938 9.640625 L 21.402344 9.640625 C 20.578125 9.640625 19.910156 10.3125 19.910156 11.140625 L 19.910156 11.859375 L 19.257812 11.859375 C 19.042969 11.859375 18.90625 12.09375 19.015625 12.285156 L 19.980469 13.960938 C 20.089844 14.152344 20.359375 14.152344 20.46875 13.960938 L 21.433594 12.285156 C 21.542969 12.09375 21.40625 11.859375 21.191406 11.859375 L 20.539062 11.859375 L 20.539062 11.140625 C 20.539062 10.660156 20.925781 10.273438 21.402344 10.273438 L 23.585938 10.273438 C 24.410156 10.273438 25.078125 9.601562 25.078125 8.773438 L 25.078125 8.078125 L 27.335938 8.078125 C 27.507812 8.078125 27.648438 7.9375 27.648438 7.761719 L 27.648438 2.074219 C 27.648438 2.066406 27.648438 2.0625 27.648438 2.058594 Z M 26.570312 1.753906 L 25.902344 1.75 L 25.902344 1.085938 Z M 21.894531 7.445312 L 21.894531 0.636719 L 25.273438 0.636719 L 25.273438 2.0625 C 25.273438 2.238281 25.414062 2.378906 25.585938 2.378906 L 27.019531 2.386719 L 27.019531 7.445312 Z M 21.894531 7.445312 " fill-opacity="1" fill-rule="nonzero"/></g><path fill="#fff" d="M 22.667969 3.054688 L 26.238281 3.054688 L 26.238281 3.6875 L 22.667969 3.6875 Z M 22.667969 3.054688 " fill-opacity="1" fill-rule="nonzero"/><path fill="#fff" d="M 25.589844 4.457031 L 26.238281 4.457031 L 26.238281 5.09375 L 25.589844 5.09375 Z M 25.589844 4.457031 " fill-opacity="1" fill-rule="nonzero"/><path fill="#fff" d="M 22.667969 4.457031 L 25.128906 4.457031 L 25.128906 5.09375 L 22.667969 5.09375 Z M 22.667969 4.457031 " fill-opacity="1" fill-rule="nonzero"/><path fill="#fff" d="M 22.667969 5.863281 L 26.238281 5.863281 L 26.238281 6.496094 L 22.667969 6.496094 Z M 22.667969 5.863281 " fill-opacity="1" fill-rule="nonzero"/><path fill="#fff" d="M 22.667969 1.757812 L 24.609375 1.757812 L 24.609375 2.390625 L 22.667969 2.390625 Z M 22.667969 1.757812 " fill-opacity="1" fill-rule="nonzero"/><g clip-path="url(#87fd9c84ed)"><path fill="#fff" d="M 5.121094 8.773438 C 5.121094 9.601562 5.789062 10.273438 6.613281 10.273438 L 8.796875 10.273438 C 9.269531 10.273438 9.660156 10.660156 9.660156 11.140625 L 9.660156 11.859375 L 9.007812 11.859375 C 8.789062 11.859375 8.65625 12.09375 8.761719 12.285156 L 9.730469 13.960938 C 9.835938 14.152344 10.109375 14.152344 10.21875 13.960938 L 11.183594 12.285156 C 11.292969 12.09375 11.15625 11.859375 10.9375 11.859375 L 10.289062 11.859375 L 10.289062 11.140625 C 10.289062 10.3125 9.621094 9.640625 8.796875 9.640625 L 6.613281 9.640625 C 6.136719 9.640625 5.75 9.25 5.75 8.773438 L 5.75 8.078125 L 8.316406 8.078125 C 8.492188 8.078125 8.632812 7.9375 8.632812 7.761719 L 8.632812 2.074219 C 8.632812 2.066406 8.632812 2.0625 8.632812 2.058594 C 8.632812 2.050781 8.632812 2.042969 8.632812 2.035156 C 8.628906 2.035156 8.628906 2.035156 8.628906 2.03125 C 8.628906 2.023438 8.628906 2.019531 8.628906 2.011719 C 8.625 2.003906 8.625 2 8.621094 1.992188 C 8.621094 1.988281 8.621094 1.988281 8.621094 1.988281 C 8.621094 1.980469 8.617188 1.976562 8.617188 1.96875 C 8.617188 1.96875 8.613281 1.96875 8.613281 1.964844 C 8.613281 1.960938 8.609375 1.953125 8.609375 1.949219 C 8.605469 1.945312 8.605469 1.945312 8.605469 1.941406 C 8.601562 1.9375 8.601562 1.933594 8.597656 1.925781 C 8.59375 1.917969 8.589844 1.914062 8.585938 1.90625 C 8.585938 1.90625 8.585938 1.902344 8.582031 1.902344 C 8.578125 1.898438 8.578125 1.890625 8.574219 1.886719 C 8.574219 1.886719 8.570312 1.886719 8.570312 1.886719 C 8.566406 1.878906 8.5625 1.875 8.558594 1.867188 C 8.558594 1.867188 8.554688 1.867188 8.554688 1.863281 C 8.550781 1.859375 8.546875 1.855469 8.539062 1.847656 L 6.792969 0.09375 C 6.789062 0.0898438 6.785156 0.0859375 6.777344 0.0820312 C 6.777344 0.078125 6.777344 0.078125 6.773438 0.078125 C 6.769531 0.0742188 6.765625 0.0703125 6.757812 0.0664062 C 6.757812 0.0625 6.757812 0.0625 6.757812 0.0625 C 6.75 0.0585938 6.746094 0.0546875 6.742188 0.0507812 C 6.738281 0.0507812 6.738281 0.0507812 6.738281 0.0507812 C 6.730469 0.046875 6.726562 0.0429688 6.71875 0.0390625 C 6.710938 0.0351562 6.707031 0.03125 6.699219 0.03125 C 6.699219 0.03125 6.699219 0.0273438 6.695312 0.0273438 C 6.691406 0.0273438 6.683594 0.0234375 6.675781 0.0195312 C 6.667969 0.0195312 6.664062 0.015625 6.65625 0.015625 C 6.65625 0.015625 6.652344 0.015625 6.652344 0.0117188 C 6.644531 0.0117188 6.640625 0.0117188 6.632812 0.0078125 C 6.625 0.0078125 6.617188 0.0078125 6.613281 0.00390625 C 6.609375 0.00390625 6.609375 0.00390625 6.605469 0.00390625 C 6.601562 0.00390625 6.59375 0.00390625 6.589844 0.00390625 C 6.585938 0.00390625 6.585938 0.00390625 6.585938 0.00390625 C 6.582031 0.00390625 6.578125 0.00390625 6.570312 0.00390625 L 2.5625 0.00390625 C 2.386719 0.00390625 2.246094 0.144531 2.246094 0.320312 L 2.246094 7.761719 C 2.246094 7.9375 2.386719 8.078125 2.5625 8.078125 L 5.121094 8.078125 Z M 7.550781 1.753906 L 6.886719 1.75 L 6.886719 1.085938 Z M 2.878906 0.636719 L 6.253906 0.636719 L 6.253906 2.0625 C 6.253906 2.238281 6.394531 2.378906 6.570312 2.378906 L 8.003906 2.386719 L 8.003906 7.445312 L 2.878906 7.445312 Z M 2.878906 0.636719 " fill-opacity="1" fill-rule="nonzero"/></g><path fill="#fff" d="M 20.183594 22.171875 C 19.988281 22.515625 19.941406 22.917969 20.050781 23.296875 C 20.234375 23.953125 20.828125 24.378906 21.472656 24.378906 C 21.605469 24.378906 21.742188 24.359375 21.875 24.320312 C 22.660156 24.097656 23.117188 23.277344 22.894531 22.488281 C 22.789062 22.109375 22.539062 21.792969 22.195312 21.597656 C 21.847656 21.40625 21.449219 21.359375 21.070312 21.464844 C 20.691406 21.574219 20.375 21.824219 20.183594 22.171875 Z M 21.476562 21.984375 C 21.628906 21.984375 21.777344 22.023438 21.914062 22.101562 C 22.125 22.21875 22.277344 22.414062 22.34375 22.644531 C 22.480469 23.128906 22.199219 23.632812 21.71875 23.769531 C 21.488281 23.835938 21.242188 23.804688 21.03125 23.6875 C 20.820312 23.570312 20.667969 23.375 20.601562 23.140625 C 20.535156 22.90625 20.566406 22.664062 20.683594 22.449219 C 20.800781 22.238281 20.992188 22.085938 21.226562 22.019531 C 21.308594 21.996094 21.390625 21.984375 21.476562 21.984375 Z M 21.476562 21.984375 " fill-opacity="1" fill-rule="nonzero"/></svg>