<svg xmlns="http://www.w3.org/2000/svg" xmlns:xlink="http://www.w3.org/1999/xlink" width="40" zoomAndPan="magnify" viewBox="0 0 30 30.000001" height="40" preserveAspectRatio="xMidYMid meet" version="1.0"><defs><clipPath id="a7597941e1"><path d="M 0.484375 0 L 29.515625 0 L 29.515625 29.03125 L 0.484375 29.03125 Z M 0.484375 0 " clip-rule="nonzero"/></clipPath></defs><g clip-path="url(#a7597941e1)"><path fill="#fff" d="M 5.390625 21.253906 C 4.003906 21.253906 2.875 22.386719 2.875 23.777344 C 2.875 25.167969 4.003906 26.300781 5.390625 26.300781 C 6.777344 26.300781 7.910156 25.167969 7.910156 23.777344 C 7.910156 22.382812 6.777344 21.253906 5.390625 21.253906 Z M 5.390625 25.6875 C 4.339844 25.6875 3.488281 24.832031 3.488281 23.777344 C 3.488281 22.722656 4.339844 21.867188 5.390625 21.867188 C 6.441406 21.867188 7.296875 22.722656 7.296875 23.777344 C 7.296875 24.828125 6.441406 25.6875 5.390625 25.6875 Z M 14.753906 25.921875 C 14.335938 25.921875 14.003906 26.257812 14.003906 26.671875 C 14.003906 27.089844 14.335938 27.425781 14.753906 27.425781 C 15.167969 27.425781 15.503906 27.089844 15.503906 26.671875 C 15.503906 26.257812 15.167969 25.921875 14.753906 25.921875 Z M 14.753906 26.808594 C 14.679688 26.808594 14.617188 26.746094 14.617188 26.671875 C 14.617188 26.597656 14.679688 26.535156 14.753906 26.535156 C 14.828125 26.535156 14.890625 26.597656 14.890625 26.671875 C 14.890625 26.753906 14.828125 26.808594 14.753906 26.808594 Z M 9.121094 2.28125 C 9 2.15625 9.007812 1.960938 9.125 1.847656 C 9.523438 1.460938 10.039062 1.25 10.574219 1.25 C 11.609375 1.25 12.511719 2.058594 12.730469 3.179688 C 12.761719 3.34375 12.65625 3.511719 12.484375 3.539062 C 12.46875 3.546875 12.445312 3.546875 12.429688 3.546875 C 12.285156 3.546875 12.15625 3.441406 12.125 3.292969 C 11.96875 2.460938 11.3125 1.863281 10.574219 1.863281 C 10.199219 1.863281 9.835938 2.011719 9.550781 2.292969 C 9.433594 2.40625 9.238281 2.398438 9.121094 2.28125 Z M 22.578125 17.628906 C 22.578125 18.042969 22.914062 18.378906 23.328125 18.378906 C 23.746094 18.378906 24.078125 18.042969 24.078125 17.628906 C 24.078125 17.210938 23.746094 16.875 23.328125 16.875 C 22.914062 16.875 22.578125 17.210938 22.578125 17.628906 Z M 23.464844 17.628906 C 23.464844 17.703125 23.402344 17.765625 23.328125 17.765625 C 23.253906 17.765625 23.191406 17.703125 23.191406 17.628906 C 23.191406 17.554688 23.253906 17.492188 23.328125 17.492188 C 23.402344 17.492188 23.464844 17.554688 23.464844 17.628906 Z M 21.242188 16.773438 C 20.828125 16.773438 20.492188 17.109375 20.492188 17.523438 C 20.492188 17.941406 20.828125 18.277344 21.242188 18.277344 C 21.660156 18.277344 21.992188 17.941406 21.992188 17.523438 C 21.992188 17.109375 21.660156 16.773438 21.242188 16.773438 Z M 21.242188 17.667969 C 21.167969 17.667969 21.105469 17.605469 21.105469 17.53125 C 21.105469 17.457031 21.167969 17.394531 21.242188 17.394531 C 21.316406 17.394531 21.378906 17.457031 21.378906 17.53125 C 21.378906 17.605469 21.316406 17.667969 21.242188 17.667969 Z M 14.105469 5.402344 C 13.933594 5.402344 13.796875 5.265625 13.796875 5.09375 C 13.796875 4.925781 13.933594 4.789062 14.105469 4.789062 C 15.066406 4.789062 15.84375 5.660156 15.84375 6.730469 C 15.84375 6.902344 15.707031 7.039062 15.539062 7.039062 C 15.367188 7.039062 15.230469 6.902344 15.230469 6.730469 C 15.230469 6 14.722656 5.402344 14.105469 5.402344 Z M 16.839844 26.023438 C 16.421875 26.023438 16.089844 26.359375 16.089844 26.773438 C 16.089844 27.191406 16.421875 27.527344 16.839844 27.527344 C 17.253906 27.527344 17.589844 27.191406 17.589844 26.773438 C 17.59375 26.359375 17.253906 26.023438 16.839844 26.023438 Z M 16.839844 26.914062 C 16.765625 26.914062 16.703125 26.847656 16.703125 26.773438 C 16.703125 26.703125 16.765625 26.636719 16.839844 26.636719 C 16.914062 26.636719 16.976562 26.703125 16.976562 26.773438 C 16.976562 26.847656 16.917969 26.914062 16.839844 26.914062 Z M 14.753906 22.347656 C 14.335938 22.347656 14.003906 22.683594 14.003906 23.097656 C 14.003906 23.515625 14.335938 23.851562 14.753906 23.851562 C 15.167969 23.851562 15.503906 23.515625 15.503906 23.097656 C 15.503906 22.683594 15.167969 22.347656 14.753906 22.347656 Z M 14.753906 23.234375 C 14.679688 23.234375 14.617188 23.171875 14.617188 23.097656 C 14.617188 23.023438 14.679688 22.960938 14.753906 22.960938 C 14.828125 22.960938 14.890625 23.023438 14.890625 23.097656 C 14.890625 23.171875 14.828125 23.234375 14.753906 23.234375 Z M 16.839844 22.445312 C 16.421875 22.445312 16.089844 22.78125 16.089844 23.195312 C 16.089844 23.613281 16.421875 23.949219 16.839844 23.949219 C 17.253906 23.949219 17.589844 23.613281 17.589844 23.195312 C 17.589844 22.78125 17.253906 22.445312 16.839844 22.445312 Z M 16.839844 23.332031 C 16.765625 23.332031 16.703125 23.269531 16.703125 23.195312 C 16.703125 23.121094 16.765625 23.058594 16.839844 23.058594 C 16.914062 23.058594 16.976562 23.121094 16.976562 23.195312 C 16.976562 23.277344 16.917969 23.332031 16.839844 23.332031 Z M 29.492188 19.246094 L 29.492188 17.523438 C 29.492188 17.355469 29.355469 17.21875 29.183594 17.21875 C 29.011719 17.21875 28.875 17.355469 28.875 17.523438 L 28.875 19.121094 C 28.460938 19.285156 26.773438 19.484375 24.296875 19.484375 C 21.828125 19.484375 20.148438 19.285156 19.71875 19.125 C 19.714844 19.125 19.714844 19.125 19.707031 19.121094 C 19.707031 18.550781 19.707031 17.980469 19.707031 17.410156 C 19.707031 16.984375 19.707031 16.5625 19.707031 16.132812 C 19.707031 15.988281 19.617188 15.457031 19.707031 15.332031 C 19.714844 15.324219 19.726562 15.28125 19.726562 15.273438 C 20 15.421875 20.425781 15.40625 20.730469 15.4375 C 21.117188 15.484375 21.511719 15.519531 21.902344 15.546875 C 22.679688 15.605469 23.464844 15.640625 24.25 15.640625 C 25.800781 15.640625 27.347656 15.523438 28.882812 15.292969 C 28.882812 15.679688 28.882812 16.070312 28.882812 16.460938 C 28.882812 16.628906 29.019531 16.765625 29.1875 16.765625 C 29.359375 16.765625 29.496094 16.628906 29.496094 16.460938 L 29.496094 14.765625 C 29.496094 14.5625 29.492188 13.945312 24.601562 13.917969 L 24.601562 6.730469 C 24.601562 6.558594 24.464844 6.421875 24.296875 6.421875 L 17.078125 6.421875 C 16.929688 4.808594 15.65625 3.546875 14.117188 3.546875 C 14.085938 3.546875 14.058594 3.546875 14.03125 3.546875 C 13.960938 1.578125 12.445312 0 10.585938 0 C 8.925781 0 7.550781 1.238281 7.222656 2.914062 C 6.578125 2.40625 5.722656 2.21875 4.9375 2.421875 C 4.773438 2.46875 4.675781 2.632812 4.714844 2.796875 C 4.761719 2.964844 4.929688 3.058594 5.089844 3.019531 C 5.253906 2.976562 5.421875 2.957031 5.589844 2.957031 C 6.214844 2.957031 6.808594 3.253906 7.210938 3.777344 C 7.289062 3.882812 7.425781 3.921875 7.546875 3.882812 C 7.671875 3.839844 7.757812 3.726562 7.757812 3.597656 C 7.800781 1.925781 9.046875 0.621094 10.582031 0.621094 C 12.144531 0.621094 13.410156 2 13.410156 3.691406 C 13.410156 3.734375 13.410156 3.777344 13.40625 3.820312 L 13.398438 3.875 C 13.394531 3.964844 13.433594 4.058594 13.503906 4.121094 C 13.570312 4.183594 13.660156 4.210938 13.757812 4.195312 C 13.894531 4.171875 14.003906 4.160156 14.109375 4.160156 C 15.410156 4.160156 16.476562 5.3125 16.476562 6.730469 C 16.476562 8.148438 15.410156 9.300781 14.109375 9.300781 L 11.546875 9.300781 C 11.375 9.300781 11.238281 9.4375 11.238281 9.609375 C 11.238281 9.78125 11.375 9.917969 11.546875 9.917969 L 14.109375 9.917969 C 15.65625 9.917969 16.929688 8.652344 17.070312 7.039062 L 23.984375 7.039062 L 23.984375 13.929688 C 19.09375 13.953125 19.089844 14.574219 19.089844 14.777344 L 19.089844 19.253906 C 19.089844 19.269531 19.089844 19.285156 19.089844 19.304688 L 19.089844 20.078125 C 18.570312 20.050781 17.953125 20.03125 17.203125 20.03125 C 17.03125 20.03125 16.894531 20.167969 16.894531 20.339844 C 16.894531 20.511719 17.03125 20.648438 17.203125 20.648438 C 18.042969 20.648438 18.769531 20.675781 19.375 20.722656 C 19.679688 20.746094 19.9375 20.769531 20.152344 20.796875 C 20.140625 20.796875 20.128906 20.796875 20.117188 20.800781 C 19.316406 20.894531 18.503906 20.929688 17.695312 20.9375 C 16.867188 20.949219 16.039062 20.933594 15.214844 20.882812 C 14.890625 20.859375 14.558594 20.835938 14.234375 20.800781 C 14.714844 20.746094 15.378906 20.695312 16.253906 20.671875 C 16.421875 20.664062 16.554688 20.523438 16.554688 20.351562 C 16.546875 20.1875 16.414062 20.050781 16.234375 20.050781 C 12.804688 20.140625 12.804688 20.550781 12.804688 20.796875 L 12.804688 23.46875 L 10.28125 23.46875 L 10.28125 23.117188 C 10.28125 22.878906 10.085938 22.675781 9.84375 22.675781 L 9.207031 22.675781 C 9.121094 22.386719 9.007812 22.109375 8.859375 21.84375 L 9.3125 21.390625 C 9.476562 21.21875 9.476562 20.9375 9.3125 20.773438 L 8.382812 19.839844 C 8.210938 19.667969 7.9375 19.667969 7.765625 19.839844 L 7.3125 20.296875 C 7.050781 20.148438 6.773438 20.03125 6.484375 19.953125 L 6.484375 19.308594 C 6.484375 19.070312 6.289062 18.871094 6.046875 18.871094 L 5.699219 18.871094 L 5.699219 9.917969 L 10.15625 9.917969 C 10.324219 9.917969 10.460938 9.78125 10.460938 9.609375 C 10.460938 9.4375 10.324219 9.300781 10.15625 9.300781 L 2.828125 9.300781 C 1.886719 9.300781 1.117188 8.464844 1.117188 7.4375 C 1.117188 6.410156 1.886719 5.574219 2.828125 5.574219 C 2.914062 5.574219 3.003906 5.585938 3.101562 5.601562 C 3.191406 5.621094 3.28125 5.589844 3.351562 5.535156 C 3.417969 5.476562 3.460938 5.390625 3.460938 5.300781 L 3.460938 5.273438 C 3.460938 4.570312 3.75 3.914062 4.25 3.476562 C 4.375 3.363281 4.390625 3.167969 4.277344 3.042969 C 4.164062 2.917969 3.972656 2.902344 3.84375 3.015625 C 3.289062 3.503906 2.9375 4.207031 2.863281 4.964844 C 1.570312 4.941406 0.503906 6.050781 0.503906 7.4375 C 0.503906 8.804688 1.550781 9.921875 2.828125 9.921875 L 5.085938 9.921875 L 5.085938 18.882812 L 4.738281 18.882812 C 4.5 18.882812 4.300781 19.074219 4.300781 19.320312 L 4.300781 19.964844 C 4.011719 20.042969 3.738281 20.164062 3.46875 20.304688 L 3.015625 19.851562 C 2.84375 19.679688 2.574219 19.679688 2.402344 19.851562 L 1.46875 20.773438 C 1.300781 20.945312 1.300781 21.21875 1.46875 21.394531 L 1.925781 21.84375 C 1.777344 22.109375 1.664062 22.386719 1.582031 22.675781 L 0.941406 22.675781 C 0.703125 22.675781 0.503906 22.871094 0.503906 23.117188 L 0.503906 24.433594 C 0.503906 24.671875 0.695312 24.871094 0.941406 24.871094 L 1.578125 24.871094 C 1.664062 25.164062 1.777344 25.441406 1.917969 25.703125 L 1.464844 26.160156 C 1.292969 26.332031 1.292969 26.605469 1.464844 26.78125 L 2.394531 27.710938 C 2.566406 27.882812 2.84375 27.882812 3.011719 27.710938 L 3.464844 27.253906 C 3.726562 27.402344 4.003906 27.515625 4.292969 27.597656 L 4.292969 28.234375 C 4.292969 28.472656 4.488281 28.671875 4.730469 28.671875 L 6.046875 28.671875 C 6.285156 28.671875 6.484375 28.480469 6.484375 28.234375 L 6.484375 27.597656 C 6.773438 27.511719 7.050781 27.398438 7.3125 27.253906 L 7.765625 27.710938 C 7.9375 27.882812 8.210938 27.882812 8.382812 27.710938 L 9.3125 26.773438 C 9.476562 26.605469 9.476562 26.324219 9.3125 26.160156 L 8.859375 25.703125 C 9.007812 25.441406 9.121094 25.164062 9.207031 24.871094 L 9.84375 24.871094 C 10.082031 24.871094 10.28125 24.679688 10.28125 24.433594 L 10.28125 24.078125 L 12.816406 24.078125 L 12.816406 28.273438 C 12.816406 28.480469 12.816406 29.03125 17.207031 29.03125 C 18.878906 29.03125 19.914062 28.953125 20.554688 28.84375 C 21.480469 28.964844 22.839844 29.03125 24.296875 29.03125 C 24.8125 29.03125 25.324219 29.019531 25.808594 29.003906 C 25.976562 29 26.109375 28.855469 26.101562 28.683594 C 26.097656 28.511719 25.9375 28.382812 25.785156 28.386719 C 25.308594 28.40625 24.800781 28.417969 24.289062 28.417969 C 23.3125 28.417969 22.378906 28.382812 21.597656 28.324219 C 21.597656 28.308594 21.597656 28.285156 21.597656 28.269531 C 21.597656 28.269531 21.597656 24.46875 21.601562 24.460938 C 22.109375 24.398438 22.699219 24.523438 23.210938 24.542969 C 23.816406 24.5625 24.425781 24.570312 25.039062 24.550781 C 25.710938 24.535156 26.386719 24.5 27.058594 24.445312 C 27.636719 24.394531 28.3125 24.40625 28.859375 24.195312 C 28.867188 24.195312 28.871094 24.1875 28.875 24.1875 L 28.875 28.039062 C 28.667969 28.121094 28.035156 28.25 26.710938 28.335938 C 26.539062 28.347656 26.414062 28.496094 26.421875 28.660156 C 26.433594 28.832031 26.582031 28.957031 26.746094 28.953125 C 29.492188 28.777344 29.492188 28.445312 29.492188 28.175781 C 29.492188 28.195312 29.492188 19.257812 29.492188 19.246094 Z M 24.289062 14.542969 C 26.113281 14.542969 27.511719 14.652344 28.285156 14.777344 C 28.273438 14.777344 28.269531 14.785156 28.257812 14.785156 C 28.171875 14.796875 28.074219 14.8125 27.972656 14.824219 C 27.96875 14.824219 27.960938 14.824219 27.957031 14.824219 C 26.75 14.972656 25.523438 15.011719 24.3125 15.011719 C 23.691406 15.011719 23.066406 14.996094 22.449219 14.964844 C 21.828125 14.9375 21.203125 14.910156 20.589844 14.824219 C 20.503906 14.8125 20.417969 14.789062 20.328125 14.785156 C 20.316406 14.785156 20.304688 14.777344 20.292969 14.777344 C 21.066406 14.660156 22.464844 14.542969 24.289062 14.542969 Z M 9.664062 24.257812 L 8.964844 24.257812 C 8.824219 24.257812 8.699219 24.359375 8.664062 24.496094 C 8.582031 24.882812 8.425781 25.246094 8.214844 25.585938 C 8.136719 25.703125 8.152344 25.863281 8.257812 25.964844 L 8.75 26.460938 L 8.074219 27.140625 L 7.578125 26.644531 C 7.476562 26.542969 7.320312 26.523438 7.195312 26.605469 C 6.863281 26.820312 6.5 26.96875 6.109375 27.054688 C 5.964844 27.082031 5.863281 27.207031 5.863281 27.355469 L 5.863281 28.058594 L 4.914062 28.058594 L 4.914062 27.355469 C 4.914062 27.214844 4.8125 27.089844 4.667969 27.054688 C 4.285156 26.96875 3.917969 26.816406 3.585938 26.605469 C 3.464844 26.523438 3.300781 26.542969 3.199219 26.644531 L 2.703125 27.140625 L 2.027344 26.460938 L 2.519531 25.964844 C 2.625 25.863281 2.640625 25.703125 2.5625 25.585938 C 2.34375 25.253906 2.199219 24.882812 2.113281 24.496094 C 2.082031 24.351562 1.957031 24.25 1.8125 24.25 L 1.117188 24.25 L 1.117188 23.292969 L 1.816406 23.292969 C 1.957031 23.292969 2.082031 23.191406 2.117188 23.046875 C 2.203125 22.660156 2.355469 22.296875 2.566406 21.960938 C 2.644531 21.839844 2.628906 21.675781 2.527344 21.570312 L 2.03125 21.074219 L 2.707031 20.398438 L 3.203125 20.894531 C 3.304688 20.996094 3.464844 21.011719 3.585938 20.933594 C 3.917969 20.71875 4.285156 20.570312 4.667969 20.484375 C 4.8125 20.453125 4.914062 20.328125 4.914062 20.179688 L 4.914062 19.480469 L 5.867188 19.480469 L 5.867188 20.179688 C 5.867188 20.324219 5.972656 20.449219 6.113281 20.484375 C 6.5 20.570312 6.863281 20.71875 7.199219 20.933594 C 7.320312 21.011719 7.476562 20.996094 7.578125 20.894531 L 8.074219 20.398438 L 8.75 21.074219 L 8.257812 21.570312 C 8.152344 21.675781 8.136719 21.835938 8.214844 21.953125 C 8.433594 22.289062 8.582031 22.65625 8.664062 23.042969 C 8.695312 23.183594 8.820312 23.28125 8.964844 23.28125 L 9.664062 23.28125 Z M 20.988281 28.132812 C 20.910156 28.160156 20.761719 28.195312 20.503906 28.234375 C 20.5 28.234375 20.5 28.238281 20.492188 28.238281 C 19.839844 28.335938 18.691406 28.429688 17.207031 28.429688 C 15.207031 28.429688 13.816406 28.269531 13.429688 28.136719 C 13.429688 27.554688 13.429688 26.980469 13.429688 26.398438 C 13.429688 25.941406 13.453125 25.480469 13.429688 25.027344 C 13.785156 25.128906 14.171875 25.144531 14.542969 25.183594 C 14.953125 25.226562 15.359375 25.257812 15.769531 25.277344 C 16.589844 25.320312 17.40625 25.328125 18.226562 25.292969 C 18.695312 25.277344 19.167969 25.246094 19.640625 25.203125 C 20.089844 25.164062 20.554688 25.140625 20.988281 25.019531 Z M 20.988281 24.394531 C 20.980469 24.394531 20.980469 24.398438 20.976562 24.398438 C 20.964844 24.40625 20.953125 24.40625 20.9375 24.410156 C 20.585938 24.519531 20.1875 24.542969 19.828125 24.574219 C 18.925781 24.667969 18.007812 24.6875 17.101562 24.6875 C 16.484375 24.683594 15.871094 24.660156 15.257812 24.621094 C 14.953125 24.597656 14.640625 24.570312 14.332031 24.535156 C 14.046875 24.507812 13.753906 24.488281 13.484375 24.410156 C 13.472656 24.40625 13.457031 24.40625 13.445312 24.398438 C 13.441406 24.398438 13.433594 24.394531 13.433594 24.394531 L 13.433594 21.28125 C 14.378906 21.539062 15.417969 21.53125 16.390625 21.558594 C 17.183594 21.578125 17.980469 21.566406 18.777344 21.527344 C 19.511719 21.488281 20.28125 21.476562 20.992188 21.285156 L 20.992188 24.394531 Z M 28.875 23.582031 C 28.875 23.664062 27.921875 23.773438 27.820312 23.78125 C 27.425781 23.828125 27.03125 23.855469 26.636719 23.878906 C 25 23.976562 23.347656 23.984375 21.710938 23.863281 C 21.679688 23.863281 21.648438 23.855469 21.617188 23.855469 C 21.613281 23.855469 21.613281 23.855469 21.605469 23.855469 L 21.605469 20.796875 C 21.605469 20.769531 21.605469 20.738281 21.597656 20.699219 C 21.5625 20.507812 21.367188 20.339844 20.523438 20.222656 C 20.300781 20.1875 20.03125 20.152344 19.707031 20.125 L 19.707031 19.75 C 20.34375 19.941406 21.648438 20.105469 24.296875 20.105469 C 26.945312 20.105469 28.238281 19.941406 28.882812 19.75 C 28.875 19.75 28.875 23.5625 28.875 23.582031 Z M 28.875 23.582031 " fill-opacity="1" fill-rule="nonzero"/></g></svg>