<svg xmlns="http://www.w3.org/2000/svg" xmlns:xlink="http://www.w3.org/1999/xlink" width="40" zoomAndPan="magnify" viewBox="0 0 30 30.000001" height="40" preserveAspectRatio="xMidYMid meet" version="1.0"><defs><clipPath id="dd94992301"><path d="M 1.246094 0.761719 L 28.828125 0.761719 L 28.828125 28.34375 L 1.246094 28.34375 Z M 1.246094 0.761719 " clip-rule="nonzero"/></clipPath></defs><g clip-path="url(#dd94992301)"><path fill="#fff" d="M 28.4375 18.65625 L 26.066406 18.65625 C 25.859375 18.65625 25.691406 18.824219 25.691406 19.03125 L 25.691406 19.894531 L 20.195312 19.894531 L 20.195312 19.03125 C 20.195312 18.824219 20.027344 18.65625 19.820312 18.65625 L 17.449219 18.65625 C 17.242188 18.65625 17.074219 18.824219 17.074219 19.03125 L 17.074219 19.894531 L 13.636719 19.894531 C 11.46875 19.890625 9.710938 18.132812 9.707031 15.964844 L 9.707031 12.5 L 10.570312 12.5 C 10.777344 12.5 10.945312 12.332031 10.945312 12.125 L 10.945312 9.757812 C 10.945312 9.546875 10.777344 9.378906 10.570312 9.378906 L 9.707031 9.378906 L 9.707031 3.882812 L 10.570312 3.882812 C 10.777344 3.882812 10.945312 3.714844 10.945312 3.507812 L 10.945312 1.140625 C 10.945312 0.933594 10.777344 0.761719 10.570312 0.761719 L 1.636719 0.761719 C 1.429688 0.761719 1.261719 0.933594 1.261719 1.140625 L 1.261719 3.507812 C 1.261719 3.714844 1.429688 3.882812 1.636719 3.882812 L 2.496094 3.882812 L 2.496094 9.378906 L 1.636719 9.378906 C 1.429688 9.378906 1.261719 9.546875 1.261719 9.757812 L 1.261719 12.125 C 1.261719 12.332031 1.429688 12.5 1.636719 12.5 L 2.496094 12.5 L 2.496094 15.964844 C 2.503906 22.113281 7.488281 27.097656 13.636719 27.105469 L 17.074219 27.105469 L 17.074219 27.964844 C 17.074219 28.171875 17.242188 28.34375 17.449219 28.34375 L 19.820312 28.34375 C 20.027344 28.34375 20.195312 28.171875 20.195312 27.964844 L 20.195312 27.105469 L 25.691406 27.105469 L 25.691406 27.964844 C 25.691406 28.171875 25.859375 28.34375 26.066406 28.34375 L 28.4375 28.34375 C 28.644531 28.34375 28.8125 28.171875 28.8125 27.964844 L 28.8125 19.03125 C 28.8125 18.824219 28.644531 18.65625 28.4375 18.65625 Z M 25.691406 22.046875 L 20.195312 22.046875 L 20.195312 20.648438 L 25.691406 20.648438 Z M 13.636719 20.648438 L 17.074219 20.648438 L 17.074219 22.046875 L 13.636719 22.046875 C 10.28125 22.042969 7.558594 19.320312 7.554688 15.964844 L 7.554688 12.5 L 8.957031 12.5 L 8.957031 15.964844 C 8.957031 18.550781 11.054688 20.644531 13.636719 20.648438 Z M 8.957031 9.378906 L 7.554688 9.378906 L 7.554688 3.882812 L 8.957031 3.882812 Z M 2.015625 1.515625 L 10.191406 1.515625 L 10.191406 3.128906 L 2.015625 3.128906 Z M 3.25 3.882812 L 6.804688 3.882812 L 6.804688 9.378906 L 3.25 9.378906 Z M 2.015625 10.132812 L 10.191406 10.132812 L 10.191406 11.746094 L 2.015625 11.746094 Z M 13.636719 26.351562 C 7.902344 26.34375 3.257812 21.699219 3.25 15.964844 L 3.25 12.5 L 6.804688 12.5 L 6.804688 15.964844 C 6.808594 19.738281 9.863281 22.796875 13.636719 22.800781 L 17.074219 22.800781 L 17.074219 26.351562 Z M 19.441406 27.589844 L 17.828125 27.589844 L 17.828125 19.410156 L 19.441406 19.410156 Z M 20.195312 22.800781 L 25.691406 22.800781 L 25.691406 26.351562 L 20.195312 26.351562 Z M 28.058594 27.589844 L 26.445312 27.589844 L 26.445312 19.410156 L 28.058594 19.410156 Z M 28.058594 27.589844 " fill-opacity="1" fill-rule="nonzero"/></g></svg>