<svg xmlns="http://www.w3.org/2000/svg" xmlns:xlink="http://www.w3.org/1999/xlink" width="40"  zoomAndPan="magnify" viewBox="0 0 30 30.000001" height="40" preserveAspectRatio="xMidYMid meet" version="1.0"><defs><clipPath id="d8a6c08db5"><path   d="M 4.039062 2.085938 L 25.8125 2.085938 L 25.8125 26.761719 L 4.039062 26.761719 Z M 4.039062 2.085938 " clip-rule="nonzero"/></clipPath></defs><g clip-path="url(#d8a6c08db5)"><path fill="#fff" d="M 9.203125 10.167969 C 9.359375 10.320312 9.363281 10.574219 9.210938 10.730469 L 7.917969 12.066406 C 7.765625 12.222656 7.511719 12.226562 7.355469 12.074219 L 6.976562 11.703125 C 6.820312 11.550781 6.816406 11.300781 6.964844 11.144531 C 7.117188 10.988281 7.367188 10.984375 7.527344 11.132812 L 7.625 11.226562 L 8.640625 10.175781 C 8.796875 10.019531 9.046875 10.015625 9.203125 10.167969 Z M 5.863281 12.945312 L 5.863281 9.292969 C 5.863281 9.074219 6.042969 8.898438 6.261719 8.898438 L 9.914062 8.898438 C 10.136719 8.898438 10.3125 9.074219 10.3125 9.292969 L 10.3125 12.945312 C 10.3125 13.167969 10.136719 13.34375 9.914062 13.34375 L 6.261719 13.34375 C 6.042969 13.34375 5.863281 13.167969 5.863281 12.945312 Z M 6.660156 12.546875 L 9.519531 12.546875 L 9.519531 9.691406 L 6.660156 9.691406 Z M 11.5625 9.691406 L 20.3125 9.691406 C 20.535156 9.691406 20.710938 9.515625 20.710938 9.292969 C 20.710938 9.074219 20.535156 8.898438 20.3125 8.898438 L 11.5625 8.898438 C 11.34375 8.898438 11.167969 9.074219 11.167969 9.292969 C 11.167969 9.515625 11.34375 9.691406 11.5625 9.691406 Z M 11.5625 11.519531 L 18.375 11.519531 C 18.59375 11.519531 18.773438 11.339844 18.773438 11.121094 C 18.773438 10.902344 18.59375 10.722656 18.375 10.722656 L 11.5625 10.722656 C 11.34375 10.722656 11.167969 10.902344 11.167969 11.121094 C 11.167969 11.339844 11.34375 11.519531 11.5625 11.519531 Z M 16.277344 18.90625 L 16.277344 20.160156 C 16.277344 20.367188 16.117188 20.542969 15.910156 20.558594 L 14.699219 20.648438 C 14.664062 20.765625 14.625 20.878906 14.578125 20.984375 C 14.535156 21.097656 14.484375 21.203125 14.425781 21.3125 L 15.195312 22.207031 C 15.351562 22.363281 15.351562 22.613281 15.195312 22.769531 L 14.308594 23.65625 C 14.164062 23.800781 13.925781 23.8125 13.769531 23.675781 L 12.847656 22.886719 C 12.746094 22.941406 12.636719 22.996094 12.523438 23.039062 C 12.414062 23.085938 12.300781 23.125 12.1875 23.160156 L 12.097656 24.347656 C 12.089844 24.5625 11.914062 24.738281 11.699219 24.738281 L 10.445312 24.738281 C 10.238281 24.738281 10.0625 24.578125 10.046875 24.367188 L 9.957031 23.160156 C 9.839844 23.125 9.726562 23.085938 9.617188 23.039062 C 9.507812 22.992188 9.398438 22.941406 9.292969 22.886719 L 8.394531 23.65625 C 8.238281 23.8125 7.988281 23.8125 7.835938 23.65625 L 6.945312 22.769531 C 6.800781 22.621094 6.789062 22.386719 6.925781 22.230469 L 7.714844 21.308594 C 7.660156 21.203125 7.605469 21.09375 7.5625 20.984375 C 7.515625 20.875 7.476562 20.761719 7.441406 20.648438 L 6.25 20.558594 C 6.035156 20.550781 5.863281 20.375 5.863281 20.160156 L 5.863281 18.90625 C 5.863281 18.699219 6.023438 18.523438 6.234375 18.507812 L 7.441406 18.417969 C 7.472656 18.308594 7.511719 18.203125 7.554688 18.101562 L 7.5625 18.082031 C 7.609375 17.96875 7.660156 17.863281 7.714844 17.757812 L 6.945312 16.859375 C 6.789062 16.703125 6.789062 16.453125 6.945312 16.296875 L 7.832031 15.410156 C 7.980469 15.265625 8.214844 15.253906 8.371094 15.390625 L 9.292969 16.179688 C 9.390625 16.128906 9.492188 16.078125 9.597656 16.035156 L 9.617188 16.027344 C 9.726562 15.980469 9.839844 15.941406 9.957031 15.90625 L 10.046875 14.714844 C 10.050781 14.5 10.226562 14.328125 10.445312 14.328125 L 11.699219 14.328125 C 11.90625 14.328125 12.078125 14.488281 12.09375 14.699219 L 12.1875 15.90625 C 12.304688 15.941406 12.414062 15.980469 12.523438 16.027344 C 12.636719 16.070312 12.742188 16.125 12.847656 16.179688 L 13.746094 15.410156 C 13.902344 15.253906 14.152344 15.253906 14.308594 15.410156 L 15.195312 16.296875 C 15.339844 16.441406 15.351562 16.675781 15.214844 16.835938 L 14.425781 17.753906 C 14.476562 17.855469 14.527344 17.957031 14.570312 18.058594 L 14.578125 18.082031 C 14.625 18.1875 14.664062 18.300781 14.699219 18.417969 L 15.890625 18.507812 C 16.105469 18.515625 16.277344 18.691406 16.277344 18.90625 Z M 15.480469 19.273438 L 14.359375 19.191406 C 14.171875 19.175781 14.023438 19.03125 13.996094 18.851562 C 13.960938 18.695312 13.910156 18.539062 13.847656 18.386719 L 13.839844 18.367188 C 13.773438 18.210938 13.695312 18.0625 13.609375 17.925781 C 13.511719 17.773438 13.53125 17.582031 13.640625 17.453125 L 14.375 16.601562 L 14.007812 16.234375 L 13.152344 16.964844 C 13.011719 17.085938 12.808594 17.089844 12.664062 16.988281 C 12.523438 16.898438 12.375 16.824219 12.222656 16.757812 L 12.21875 16.757812 C 12.058594 16.691406 11.894531 16.640625 11.726562 16.601562 C 11.550781 16.5625 11.429688 16.414062 11.417969 16.246094 L 11.332031 15.125 L 10.8125 15.125 L 10.726562 16.246094 C 10.710938 16.433594 10.570312 16.582031 10.390625 16.609375 C 10.230469 16.644531 10.074219 16.695312 9.921875 16.757812 L 9.902344 16.765625 C 9.753906 16.828125 9.605469 16.90625 9.460938 17 C 9.300781 17.101562 9.097656 17.074219 8.96875 16.949219 L 8.136719 16.230469 L 7.769531 16.597656 L 8.5 17.453125 C 8.621094 17.59375 8.628906 17.796875 8.523438 17.941406 C 8.4375 18.078125 8.359375 18.226562 8.296875 18.386719 L 8.285156 18.402344 C 8.226562 18.554688 8.175781 18.714844 8.140625 18.878906 C 8.101562 19.054688 7.953125 19.175781 7.78125 19.1875 L 6.660156 19.273438 L 6.660156 19.792969 L 7.78125 19.878906 C 7.96875 19.890625 8.117188 20.035156 8.144531 20.214844 C 8.179688 20.371094 8.230469 20.527344 8.296875 20.679688 C 8.363281 20.84375 8.445312 21 8.535156 21.140625 C 8.628906 21.292969 8.613281 21.484375 8.5 21.613281 L 7.769531 22.464844 L 8.136719 22.832031 L 8.988281 22.101562 C 9.125 21.984375 9.316406 21.976562 9.460938 22.066406 C 9.609375 22.160156 9.765625 22.242188 9.921875 22.308594 C 10.082031 22.375 10.25 22.425781 10.414062 22.464844 C 10.589844 22.503906 10.714844 22.652344 10.726562 22.820312 L 10.8125 23.941406 L 11.332031 23.941406 L 11.414062 22.820312 C 11.429688 22.632812 11.574219 22.484375 11.753906 22.457031 C 11.914062 22.421875 12.070312 22.371094 12.21875 22.308594 C 12.378906 22.242188 12.53125 22.160156 12.679688 22.066406 C 12.839844 21.964844 13.042969 21.992188 13.171875 22.117188 L 14.007812 22.835938 L 14.375 22.46875 L 13.640625 21.613281 C 13.519531 21.472656 13.515625 21.269531 13.617188 21.125 C 13.703125 20.988281 13.78125 20.839844 13.847656 20.679688 C 13.914062 20.519531 13.964844 20.355469 14.003906 20.1875 C 14.042969 20.011719 14.191406 19.890625 14.363281 19.878906 L 15.480469 19.792969 Z M 12.632812 17.972656 C 13.03125 18.375 13.277344 18.925781 13.277344 19.535156 C 13.277344 20.140625 13.03125 20.691406 12.632812 21.089844 L 12.628906 21.09375 C 12.230469 21.492188 11.679688 21.738281 11.070312 21.738281 C 10.460938 21.738281 9.910156 21.492188 9.511719 21.09375 C 9.109375 20.695312 8.863281 20.144531 8.863281 19.535156 C 8.863281 18.925781 9.109375 18.375 9.511719 17.976562 L 9.511719 17.972656 C 9.910156 17.574219 10.464844 17.328125 11.070312 17.328125 C 11.679688 17.328125 12.230469 17.574219 12.632812 17.972656 Z M 12.480469 19.535156 C 12.480469 19.144531 12.324219 18.792969 12.066406 18.535156 C 11.8125 18.28125 11.460938 18.125 11.070312 18.125 C 10.679688 18.125 10.324219 18.28125 10.070312 18.535156 C 9.816406 18.789062 9.660156 19.144531 9.660156 19.535156 C 9.660156 19.921875 9.816406 20.277344 10.074219 20.53125 C 10.328125 20.785156 10.679688 20.945312 11.070312 20.945312 C 11.460938 20.945312 11.8125 20.785156 12.066406 20.53125 L 12.070312 20.53125 C 12.324219 20.277344 12.480469 19.925781 12.480469 19.535156 Z M 23.578125 19.824219 L 20.320312 23.195312 L 19.558594 22.457031 C 19.402344 22.308594 19.152344 22.3125 19 22.46875 C 18.847656 22.625 18.851562 22.875 19.007812 23.027344 L 20.054688 24.039062 C 20.210938 24.191406 20.460938 24.183594 20.613281 24.027344 L 24.148438 20.375 C 24.300781 20.21875 24.296875 19.96875 24.140625 19.816406 C 23.980469 19.664062 23.730469 19.667969 23.578125 19.824219 Z M 25.804688 18.609375 L 25.804688 22.855469 C 25.726562 25.660156 23.875 26.152344 22.078125 26.628906 L 21.773438 26.707031 C 21.757812 26.714844 21.742188 26.71875 21.726562 26.71875 L 21.652344 26.738281 C 21.585938 26.757812 21.511719 26.761719 21.441406 26.742188 L 21.390625 26.726562 L 4.445312 26.726562 C 4.226562 26.726562 4.046875 26.550781 4.046875 26.328125 L 4.050781 26.292969 L 4.078125 5.253906 C 4.078125 5.035156 4.257812 4.855469 4.472656 4.855469 L 8.097656 4.855469 L 8.097656 4.1875 C 8.097656 3.96875 8.277344 3.789062 8.496094 3.789062 L 10.921875 3.789062 C 11.109375 3.332031 11.421875 2.933594 11.8125 2.640625 C 12.273438 2.289062 12.84375 2.085938 13.460938 2.085938 C 14.078125 2.085938 14.648438 2.289062 15.109375 2.640625 C 15.5 2.933594 15.8125 3.332031 16 3.789062 L 18.425781 3.789062 C 18.644531 3.789062 18.824219 3.96875 18.824219 4.1875 L 18.824219 4.855469 L 22.449219 4.855469 C 22.667969 4.855469 22.84375 5.03125 22.84375 5.253906 L 22.84375 17.402344 C 22.976562 17.46875 23.113281 17.53125 23.257812 17.589844 C 24.003906 17.910156 24.839844 18.144531 25.421875 18.210938 C 25.636719 18.21875 25.804688 18.394531 25.804688 18.609375 Z M 11.8125 3.789062 L 15.109375 3.789062 C 14.980469 3.589844 14.820312 3.414062 14.632812 3.273438 C 14.304688 3.027344 13.898438 2.878906 13.460938 2.878906 C 13.023438 2.878906 12.617188 3.027344 12.289062 3.273438 C 12.101562 3.414062 11.941406 3.589844 11.8125 3.789062 Z M 8.894531 4.585938 L 8.894531 5.921875 L 18.027344 5.921875 L 18.027344 4.585938 Z M 4.84375 25.933594 L 19.003906 25.933594 C 18.054688 25.425781 17.34375 24.585938 17.289062 22.894531 L 17.285156 22.84375 L 17.285156 18.609375 C 17.285156 18.410156 17.4375 18.234375 17.640625 18.214844 C 18.226562 18.152344 19.078125 17.914062 19.832031 17.589844 C 20.449219 17.328125 20.988281 17.015625 21.230469 16.714844 L 21.253906 16.6875 L 21.273438 16.671875 C 21.304688 16.640625 21.339844 16.617188 21.378906 16.601562 L 21.390625 16.59375 C 21.441406 16.574219 21.492188 16.5625 21.542969 16.5625 C 21.597656 16.5625 21.648438 16.574219 21.699219 16.59375 L 21.710938 16.601562 C 21.75 16.617188 21.785156 16.640625 21.816406 16.671875 C 21.832031 16.6875 21.84375 16.699219 21.859375 16.714844 C 21.910156 16.78125 21.972656 16.84375 22.050781 16.90625 L 22.050781 5.652344 L 18.824219 5.652344 L 18.824219 6.320312 C 18.824219 6.539062 18.644531 6.71875 18.425781 6.71875 L 8.496094 6.71875 C 8.429688 6.71875 8.363281 6.699219 8.308594 6.667969 C 8.183594 6.601562 8.097656 6.46875 8.097656 6.320312 L 8.097656 5.652344 L 4.871094 5.652344 Z M 25.007812 22.84375 L 25.007812 18.953125 C 24.394531 18.84375 23.628906 18.613281 22.945312 18.320312 C 22.722656 18.226562 22.503906 18.121094 22.296875 18.011719 C 22.269531 18 22.242188 17.984375 22.21875 17.96875 C 21.964844 17.828125 21.734375 17.675781 21.546875 17.519531 C 21.1875 17.816406 20.6875 18.089844 20.144531 18.320312 C 19.460938 18.613281 18.695312 18.84375 18.082031 18.953125 L 18.082031 22.863281 C 18.152344 25.050781 19.707031 25.460938 21.214844 25.859375 L 21.488281 25.933594 L 21.601562 25.933594 L 21.875 25.859375 C 23.386719 25.460938 24.945312 25.046875 25.007812 22.84375 Z M 25.007812 22.84375 " fill-opacity="1" fill-rule="nonzero"/></g></svg>