<svg xmlns="http://www.w3.org/2000/svg"  xmlns:xlink="http://www.w3.org/1999/xlink" width="40" zoomAndPan="magnify" viewBox="0 0 30 30.000001" height="40" preserveAspectRatio="xMidYMid meet" version="1.0"><defs><clipPath id="1aae080e8d"><path d="M 0.542969 2.324219 L 29.457031 2.324219 L 29.457031 27 L 0.542969 27 Z M 0.542969 2.324219 " clip-rule="nonzero"/></clipPath><clipPath id="9d020be50e"><path d="M 18 22.277344 L 22.886719 22.277344 L 22.886719 27 L 18 27 Z M 18 22.277344 " clip-rule="nonzero"/></clipPath><clipPath id="358f1f9568"><path d="M 7.113281 22.277344 L 12 22.277344 L 12 27 L 7.113281 27 Z M 7.113281 22.277344 " clip-rule="nonzero"/></clipPath><clipPath id="d5042699b4"><path d="M 12.371094 22.277344 L 17.628906 22.277344 L 17.628906 27 L 12.371094 27 Z M 12.371094 22.277344 " clip-rule="nonzero"/></clipPath></defs><g clip-path="url(#1aae080e8d)"><path fill="#fff" d="M 14.980469 2.976562 C 15.121094 2.972656 15.265625 3 15.394531 3.058594 L 28.8125 9.152344 L 28.8125 11.496094 L 26.984375 11.496094 L 26.984375 26.382812 L 24.945312 26.382812 L 24.945312 12.386719 L 5.050781 12.386719 L 5.050781 26.382812 L 3.011719 26.382812 L 3.011719 11.496094 L 1.179688 11.496094 L 1.179688 9.152344 L 14.605469 3.058594 C 14.722656 3.007812 14.847656 2.976562 14.980469 2.976562 Z M 14.964844 2.324219 C 14.75 2.328125 14.539062 2.378906 14.34375 2.464844 L 0.542969 8.730469 L 0.542969 12.148438 L 2.371094 12.148438 L 2.371094 27.03125 L 5.695312 27.03125 L 5.695312 13.039062 L 24.304688 13.039062 L 24.304688 27.03125 L 27.628906 27.03125 L 27.628906 12.148438 L 29.457031 12.148438 L 29.457031 8.730469 L 15.65625 2.464844 C 15.4375 2.367188 15.203125 2.316406 14.964844 2.324219 " fill-opacity="1" fill-rule="nonzero"/></g><path fill="#fff" d="M 18.957031 8.839844 C 19.144531 8.839844 19.300781 8.6875 19.300781 8.492188 C 19.300781 8.296875 19.144531 8.144531 18.957031 8.144531 L 11.042969 8.144531 C 10.855469 8.144531 10.699219 8.296875 10.699219 8.492188 C 10.699219 8.6875 10.855469 8.839844 11.042969 8.839844 L 18.957031 8.839844 " fill-opacity="1" fill-rule="nonzero"/><path fill="#fff" d="M 17.375 7.152344 C 17.566406 7.152344 17.71875 6.996094 17.71875 6.804688 C 17.71875 6.613281 17.566406 6.457031 17.375 6.457031 L 12.625 6.457031 C 12.433594 6.457031 12.277344 6.613281 12.28125 6.804688 C 12.28125 6.996094 12.433594 7.152344 12.625 7.152344 L 17.375 7.152344 " fill-opacity="1" fill-rule="nonzero"/><g clip-path="url(#9d020be50e)"><path fill="#fff" d="M 18.839844 23.050781 L 22.121094 23.050781 L 22.121094 26.382812 L 18.839844 26.382812 Z M 18.539062 22.398438 C 18.351562 22.398438 18.199219 22.554688 18.199219 22.746094 L 18.199219 26.6875 C 18.199219 26.878906 18.351562 27.03125 18.539062 27.03125 L 22.421875 27.03125 C 22.613281 27.035156 22.761719 26.878906 22.765625 26.6875 L 22.765625 22.746094 C 22.765625 22.554688 22.613281 22.398438 22.425781 22.398438 C 22.425781 22.398438 22.421875 22.398438 22.421875 22.398438 L 18.539062 22.398438 " fill-opacity="1" fill-rule="nonzero"/></g><g clip-path="url(#358f1f9568)"><path fill="#fff" d="M 7.878906 23.050781 L 11.160156 23.050781 L 11.160156 26.382812 L 7.878906 26.382812 Z M 7.574219 22.398438 C 7.386719 22.402344 7.238281 22.554688 7.238281 22.746094 L 7.238281 26.6875 C 7.238281 26.878906 7.386719 27.03125 7.574219 27.03125 L 11.460938 27.03125 C 11.648438 27.03125 11.800781 26.878906 11.800781 26.6875 L 11.800781 22.746094 C 11.800781 22.554688 11.648438 22.398438 11.460938 22.398438 L 7.574219 22.398438 " fill-opacity="1" fill-rule="nonzero"/></g><g clip-path="url(#d5042699b4)"><path fill="#fff" d="M 13.359375 23.050781 L 16.640625 23.050781 L 16.640625 26.382812 L 13.359375 26.382812 Z M 13.054688 22.398438 C 12.871094 22.398438 12.71875 22.554688 12.71875 22.746094 L 12.71875 26.6875 C 12.71875 26.878906 12.871094 27.03125 13.054688 27.03125 L 16.945312 27.03125 C 17.128906 27.035156 17.28125 26.878906 17.28125 26.6875 L 17.28125 22.746094 C 17.28125 22.554688 17.128906 22.398438 16.945312 22.398438 L 13.054688 22.398438 " fill-opacity="1" fill-rule="nonzero"/></g><path fill="#fff" d="M 10.621094 17.386719 L 13.898438 17.386719 L 13.898438 20.71875 L 10.621094 20.71875 Z M 10.316406 16.734375 C 10.128906 16.734375 9.976562 16.886719 9.976562 17.078125 L 9.976562 21.023438 C 9.976562 21.214844 10.128906 21.367188 10.316406 21.367188 L 14.203125 21.367188 C 14.390625 21.367188 14.539062 21.210938 14.539062 21.023438 L 14.539062 17.078125 C 14.539062 16.886719 14.390625 16.734375 14.203125 16.734375 L 10.316406 16.734375 " fill-opacity="1" fill-rule="nonzero"/><path fill="#fff" d="M 16.101562 17.386719 L 19.378906 17.386719 L 19.378906 20.71875 L 16.101562 20.71875 Z M 15.796875 16.734375 C 15.609375 16.734375 15.460938 16.886719 15.460938 17.078125 L 15.460938 21.023438 C 15.460938 21.214844 15.609375 21.367188 15.796875 21.367188 L 19.683594 21.367188 C 19.871094 21.367188 20.023438 21.214844 20.023438 21.023438 L 20.023438 17.078125 C 20.023438 16.886719 19.871094 16.734375 19.683594 16.734375 L 15.796875 16.734375 " fill-opacity="1" fill-rule="nonzero"/></svg>